# xmcd
#
# Track frame offsets:
#	150
#	15825
#	31425
#	49350
#	68625
#	80550
#	96975
#	112125
#	128325
#	145500
#	160800
#	176475
#	192075
#	210000
#	229275
#	241200
#	257625
#	272775
#	288975
#	306150
#
# Disc length: 4289 seconds
#
# Revision: 3
# Processed by: cddbd v1.5.2PL0 Copyright (c) Steve Scherf et al.
# Submitted via: audiograbber 1.83.01
#
DISCID=0b10bf14
DTITLE=Various Artist - CHT9908
DYEAR=1999
DGENRE=Karaoke
TTITLE0=Messina, Jo Dee - Lesson In Leavin'
TTITLE1=Twain, Shania - You've Got A Way
TTITLE2=Hill, Faith - The Secret Of Life
TTITLE3=Yearwood, Trisha - I'll Still Love You More
TTITLE4=Womack, Lee Ann - Now You See Me, Now You Don't
TTITLE5=Clark, Terri - Unsung Hero
TTITLE6=Shedaisy - Little Goodbyes
TTITLE7=Austin, Sherrie - Never Been Kissed
TTITLE8=Chapin-Carpenter, Mary - Almost Home
TTITLE9=Ashton, Susan - You're Lucky I Love You
TTITLE10=Messina, Jo Dee - Lesson In Leavin' (vocals)
TTITLE11=Twain, Shania - You've Got A Way (vocals)
TTITLE12=Hill, Faith - The Secret Of Life (vocals)
TTITLE13=Yearwood, Trisha -  I'll Still Love You More (vocals)
TTITLE14=Womack, Lee Ann - Now you See Me, Now You Don't (vocals)
TTITLE15=Clark, Terri - Unsung Hero (vocals)
TTITLE16=Shedaisy  - Little Goodbyes (vocals)
TTITLE17=Austin, Sherrie - Never Been Kissed (vocals)
TTITLE18=Chapin-Carpenter, Mary - Almost Home (vocals)
TTITLE19=Ashton, Susan - You're Lucky I Love You (vocals)
EXTD=fixed title , fixed 11-20, fixed last name, first name
EXTT0=
EXTT1=
EXTT2=
EXTT3=
EXTT4=
EXTT5=
EXTT6=
EXTT7=
EXTT8=
EXTT9=
EXTT10=
EXTT11=
EXTT12=
EXTT13=
EXTT14=
EXTT15=
EXTT16=
EXTT17=
EXTT18=
EXTT19=
PLAYORDER=
